<mxfile host="65bd71144e">
    <diagram id="9SZQ-kLNQppdYGAo2e72" name="ページ1">
        <mxGraphModel dx="936" dy="585" grid="1" gridSize="10" guides="1" tooltips="1" connect="1" arrows="1" fold="1" page="1" pageScale="1" pageWidth="1654" pageHeight="1169" math="0" shadow="0">
            <root>
                <mxCell id="0"/>
                <mxCell id="1" parent="0"/>
                <mxCell id="2" value="" style="rounded=0;whiteSpace=wrap;html=1;fillColor=#fff2cc;strokeColor=#d6b656;" parent="1" vertex="1">
                    <mxGeometry x="40" y="40" width="1560" height="960" as="geometry"/>
                </mxCell>
                <mxCell id="3" value="Assets" style="childLayout=tableLayout;recursiveResize=0;strokeColor=#98bf21;fillColor=#A7C942;shadow=1;" parent="1" vertex="1">
                    <mxGeometry x="90" y="250" width="1460" height="330" as="geometry"/>
                </mxCell>
                <mxCell id="4" style="shape=tableRow;horizontal=0;startSize=0;swimlaneHead=0;swimlaneBody=0;top=0;left=0;bottom=0;right=0;dropTarget=0;collapsible=0;recursiveResize=0;expand=0;fontStyle=0;strokeColor=inherit;fillColor=#ffffff;" parent="3" vertex="1">
                    <mxGeometry width="1460" height="69" as="geometry"/>
                </mxCell>
                <mxCell id="5" value="Title 1" style="connectable=0;recursiveResize=0;strokeColor=inherit;fillColor=#A7C942;align=center;fontStyle=1;fontColor=#FFFFFF;html=1;" parent="4" vertex="1">
                    <mxGeometry width="104" height="69" as="geometry">
                        <mxRectangle width="104" height="69" as="alternateBounds"/>
                    </mxGeometry>
                </mxCell>
                <mxCell id="6" value="Title 2" style="connectable=0;recursiveResize=0;strokeColor=inherit;fillColor=#A7C942;align=center;fontStyle=1;fontColor=#FFFFFF;html=1;" parent="4" vertex="1">
                    <mxGeometry x="104" width="105" height="69" as="geometry">
                        <mxRectangle width="105" height="69" as="alternateBounds"/>
                    </mxGeometry>
                </mxCell>
                <mxCell id="7" value="Title 3" style="connectable=0;recursiveResize=0;strokeColor=inherit;fillColor=#A7C942;align=center;fontStyle=1;fontColor=#FFFFFF;html=1;" parent="4" vertex="1">
                    <mxGeometry x="209" width="104" height="69" as="geometry">
                        <mxRectangle width="104" height="69" as="alternateBounds"/>
                    </mxGeometry>
                </mxCell>
                <mxCell id="39" style="connectable=0;recursiveResize=0;strokeColor=inherit;fillColor=#A7C942;align=center;fontStyle=1;fontColor=#FFFFFF;html=1;" parent="4" vertex="1">
                    <mxGeometry x="313" width="104" height="69" as="geometry">
                        <mxRectangle width="104" height="69" as="alternateBounds"/>
                    </mxGeometry>
                </mxCell>
                <mxCell id="44" style="connectable=0;recursiveResize=0;strokeColor=inherit;fillColor=#A7C942;align=center;fontStyle=1;fontColor=#FFFFFF;html=1;" parent="4" vertex="1">
                    <mxGeometry x="417" width="105" height="69" as="geometry">
                        <mxRectangle width="105" height="69" as="alternateBounds"/>
                    </mxGeometry>
                </mxCell>
                <mxCell id="49" style="connectable=0;recursiveResize=0;strokeColor=inherit;fillColor=#A7C942;align=center;fontStyle=1;fontColor=#FFFFFF;html=1;" parent="4" vertex="1">
                    <mxGeometry x="522" width="104" height="69" as="geometry">
                        <mxRectangle width="104" height="69" as="alternateBounds"/>
                    </mxGeometry>
                </mxCell>
                <mxCell id="54" style="connectable=0;recursiveResize=0;strokeColor=inherit;fillColor=#A7C942;align=center;fontStyle=1;fontColor=#FFFFFF;html=1;" parent="4" vertex="1">
                    <mxGeometry x="626" width="105" height="69" as="geometry">
                        <mxRectangle width="105" height="69" as="alternateBounds"/>
                    </mxGeometry>
                </mxCell>
                <mxCell id="34" style="connectable=0;recursiveResize=0;strokeColor=inherit;fillColor=#A7C942;align=center;fontStyle=1;fontColor=#FFFFFF;html=1;" parent="4" vertex="1">
                    <mxGeometry x="731" width="104" height="69" as="geometry">
                        <mxRectangle width="104" height="69" as="alternateBounds"/>
                    </mxGeometry>
                </mxCell>
                <mxCell id="74" style="connectable=0;recursiveResize=0;strokeColor=inherit;fillColor=#A7C942;align=center;fontStyle=1;fontColor=#FFFFFF;html=1;" parent="4" vertex="1">
                    <mxGeometry x="835" width="104" height="69" as="geometry">
                        <mxRectangle width="104" height="69" as="alternateBounds"/>
                    </mxGeometry>
                </mxCell>
                <mxCell id="69" style="connectable=0;recursiveResize=0;strokeColor=inherit;fillColor=#A7C942;align=center;fontStyle=1;fontColor=#FFFFFF;html=1;" parent="4" vertex="1">
                    <mxGeometry x="939" width="105" height="69" as="geometry">
                        <mxRectangle width="105" height="69" as="alternateBounds"/>
                    </mxGeometry>
                </mxCell>
                <mxCell id="64" style="connectable=0;recursiveResize=0;strokeColor=inherit;fillColor=#A7C942;align=center;fontStyle=1;fontColor=#FFFFFF;html=1;" parent="4" vertex="1">
                    <mxGeometry x="1044" width="104" height="69" as="geometry">
                        <mxRectangle width="104" height="69" as="alternateBounds"/>
                    </mxGeometry>
                </mxCell>
                <mxCell id="59" style="connectable=0;recursiveResize=0;strokeColor=inherit;fillColor=#A7C942;align=center;fontStyle=1;fontColor=#FFFFFF;html=1;" parent="4" vertex="1">
                    <mxGeometry x="1148" width="104" height="69" as="geometry">
                        <mxRectangle width="104" height="69" as="alternateBounds"/>
                    </mxGeometry>
                </mxCell>
                <mxCell id="29" style="connectable=0;recursiveResize=0;strokeColor=inherit;fillColor=#A7C942;align=center;fontStyle=1;fontColor=#FFFFFF;html=1;" parent="4" vertex="1">
                    <mxGeometry x="1252" width="104" height="69" as="geometry">
                        <mxRectangle width="104" height="69" as="alternateBounds"/>
                    </mxGeometry>
                </mxCell>
                <mxCell id="24" style="connectable=0;recursiveResize=0;strokeColor=inherit;fillColor=#A7C942;align=center;fontStyle=1;fontColor=#FFFFFF;html=1;" parent="4" vertex="1">
                    <mxGeometry x="1356" width="104" height="69" as="geometry">
                        <mxRectangle width="104" height="69" as="alternateBounds"/>
                    </mxGeometry>
                </mxCell>
                <mxCell id="8" value="" style="shape=tableRow;horizontal=0;startSize=0;swimlaneHead=0;swimlaneBody=0;top=0;left=0;bottom=0;right=0;dropTarget=0;collapsible=0;recursiveResize=0;expand=0;fontStyle=0;strokeColor=inherit;fillColor=#ffffff;" parent="3" vertex="1">
                    <mxGeometry y="69" width="1460" height="66" as="geometry"/>
                </mxCell>
                <mxCell id="9" value="Value 1" style="connectable=0;recursiveResize=0;strokeColor=inherit;fillColor=inherit;align=center;whiteSpace=wrap;html=1;" parent="8" vertex="1">
                    <mxGeometry width="104" height="66" as="geometry">
                        <mxRectangle width="104" height="66" as="alternateBounds"/>
                    </mxGeometry>
                </mxCell>
                <mxCell id="10" value="Value 2" style="connectable=0;recursiveResize=0;strokeColor=inherit;fillColor=inherit;align=center;whiteSpace=wrap;html=1;" parent="8" vertex="1">
                    <mxGeometry x="104" width="105" height="66" as="geometry">
                        <mxRectangle width="105" height="66" as="alternateBounds"/>
                    </mxGeometry>
                </mxCell>
                <mxCell id="11" value="Value 3" style="connectable=0;recursiveResize=0;strokeColor=inherit;fillColor=inherit;align=center;whiteSpace=wrap;html=1;" parent="8" vertex="1">
                    <mxGeometry x="209" width="104" height="66" as="geometry">
                        <mxRectangle width="104" height="66" as="alternateBounds"/>
                    </mxGeometry>
                </mxCell>
                <mxCell id="40" style="connectable=0;recursiveResize=0;strokeColor=inherit;fillColor=inherit;align=center;whiteSpace=wrap;html=1;" parent="8" vertex="1">
                    <mxGeometry x="313" width="104" height="66" as="geometry">
                        <mxRectangle width="104" height="66" as="alternateBounds"/>
                    </mxGeometry>
                </mxCell>
                <mxCell id="45" style="connectable=0;recursiveResize=0;strokeColor=inherit;fillColor=inherit;align=center;whiteSpace=wrap;html=1;" parent="8" vertex="1">
                    <mxGeometry x="417" width="105" height="66" as="geometry">
                        <mxRectangle width="105" height="66" as="alternateBounds"/>
                    </mxGeometry>
                </mxCell>
                <mxCell id="50" style="connectable=0;recursiveResize=0;strokeColor=inherit;fillColor=inherit;align=center;whiteSpace=wrap;html=1;" parent="8" vertex="1">
                    <mxGeometry x="522" width="104" height="66" as="geometry">
                        <mxRectangle width="104" height="66" as="alternateBounds"/>
                    </mxGeometry>
                </mxCell>
                <mxCell id="55" style="connectable=0;recursiveResize=0;strokeColor=inherit;fillColor=inherit;align=center;whiteSpace=wrap;html=1;" parent="8" vertex="1">
                    <mxGeometry x="626" width="105" height="66" as="geometry">
                        <mxRectangle width="105" height="66" as="alternateBounds"/>
                    </mxGeometry>
                </mxCell>
                <mxCell id="35" style="connectable=0;recursiveResize=0;strokeColor=inherit;fillColor=inherit;align=center;whiteSpace=wrap;html=1;" parent="8" vertex="1">
                    <mxGeometry x="731" width="104" height="66" as="geometry">
                        <mxRectangle width="104" height="66" as="alternateBounds"/>
                    </mxGeometry>
                </mxCell>
                <mxCell id="75" style="connectable=0;recursiveResize=0;strokeColor=inherit;fillColor=inherit;align=center;whiteSpace=wrap;html=1;" parent="8" vertex="1">
                    <mxGeometry x="835" width="104" height="66" as="geometry">
                        <mxRectangle width="104" height="66" as="alternateBounds"/>
                    </mxGeometry>
                </mxCell>
                <mxCell id="70" style="connectable=0;recursiveResize=0;strokeColor=inherit;fillColor=inherit;align=center;whiteSpace=wrap;html=1;" parent="8" vertex="1">
                    <mxGeometry x="939" width="105" height="66" as="geometry">
                        <mxRectangle width="105" height="66" as="alternateBounds"/>
                    </mxGeometry>
                </mxCell>
                <mxCell id="65" style="connectable=0;recursiveResize=0;strokeColor=inherit;fillColor=inherit;align=center;whiteSpace=wrap;html=1;" parent="8" vertex="1">
                    <mxGeometry x="1044" width="104" height="66" as="geometry">
                        <mxRectangle width="104" height="66" as="alternateBounds"/>
                    </mxGeometry>
                </mxCell>
                <mxCell id="60" style="connectable=0;recursiveResize=0;strokeColor=inherit;fillColor=inherit;align=center;whiteSpace=wrap;html=1;" parent="8" vertex="1">
                    <mxGeometry x="1148" width="104" height="66" as="geometry">
                        <mxRectangle width="104" height="66" as="alternateBounds"/>
                    </mxGeometry>
                </mxCell>
                <mxCell id="30" style="connectable=0;recursiveResize=0;strokeColor=inherit;fillColor=inherit;align=center;whiteSpace=wrap;html=1;" parent="8" vertex="1">
                    <mxGeometry x="1252" width="104" height="66" as="geometry">
                        <mxRectangle width="104" height="66" as="alternateBounds"/>
                    </mxGeometry>
                </mxCell>
                <mxCell id="25" style="connectable=0;recursiveResize=0;strokeColor=inherit;fillColor=inherit;align=center;whiteSpace=wrap;html=1;" parent="8" vertex="1">
                    <mxGeometry x="1356" width="104" height="66" as="geometry">
                        <mxRectangle width="104" height="66" as="alternateBounds"/>
                    </mxGeometry>
                </mxCell>
                <mxCell id="12" value="" style="shape=tableRow;horizontal=0;startSize=0;swimlaneHead=0;swimlaneBody=0;top=0;left=0;bottom=0;right=0;dropTarget=0;collapsible=0;recursiveResize=0;expand=0;fontStyle=1;strokeColor=inherit;fillColor=#EAF2D3;" parent="3" vertex="1">
                    <mxGeometry y="135" width="1460" height="63" as="geometry"/>
                </mxCell>
                <mxCell id="13" value="Value 4" style="connectable=0;recursiveResize=0;strokeColor=inherit;fillColor=inherit;whiteSpace=wrap;html=1;" parent="12" vertex="1">
                    <mxGeometry width="104" height="63" as="geometry">
                        <mxRectangle width="104" height="63" as="alternateBounds"/>
                    </mxGeometry>
                </mxCell>
                <mxCell id="14" value="Value 5" style="connectable=0;recursiveResize=0;strokeColor=inherit;fillColor=inherit;whiteSpace=wrap;html=1;" parent="12" vertex="1">
                    <mxGeometry x="104" width="105" height="63" as="geometry">
                        <mxRectangle width="105" height="63" as="alternateBounds"/>
                    </mxGeometry>
                </mxCell>
                <mxCell id="15" value="Value 6" style="connectable=0;recursiveResize=0;strokeColor=inherit;fillColor=inherit;whiteSpace=wrap;html=1;" parent="12" vertex="1">
                    <mxGeometry x="209" width="104" height="63" as="geometry">
                        <mxRectangle width="104" height="63" as="alternateBounds"/>
                    </mxGeometry>
                </mxCell>
                <mxCell id="41" style="connectable=0;recursiveResize=0;strokeColor=inherit;fillColor=inherit;whiteSpace=wrap;html=1;" parent="12" vertex="1">
                    <mxGeometry x="313" width="104" height="63" as="geometry">
                        <mxRectangle width="104" height="63" as="alternateBounds"/>
                    </mxGeometry>
                </mxCell>
                <mxCell id="46" style="connectable=0;recursiveResize=0;strokeColor=inherit;fillColor=inherit;whiteSpace=wrap;html=1;" parent="12" vertex="1">
                    <mxGeometry x="417" width="105" height="63" as="geometry">
                        <mxRectangle width="105" height="63" as="alternateBounds"/>
                    </mxGeometry>
                </mxCell>
                <mxCell id="51" style="connectable=0;recursiveResize=0;strokeColor=inherit;fillColor=inherit;whiteSpace=wrap;html=1;" parent="12" vertex="1">
                    <mxGeometry x="522" width="104" height="63" as="geometry">
                        <mxRectangle width="104" height="63" as="alternateBounds"/>
                    </mxGeometry>
                </mxCell>
                <mxCell id="56" style="connectable=0;recursiveResize=0;strokeColor=inherit;fillColor=inherit;whiteSpace=wrap;html=1;" parent="12" vertex="1">
                    <mxGeometry x="626" width="105" height="63" as="geometry">
                        <mxRectangle width="105" height="63" as="alternateBounds"/>
                    </mxGeometry>
                </mxCell>
                <mxCell id="36" style="connectable=0;recursiveResize=0;strokeColor=inherit;fillColor=inherit;whiteSpace=wrap;html=1;" parent="12" vertex="1">
                    <mxGeometry x="731" width="104" height="63" as="geometry">
                        <mxRectangle width="104" height="63" as="alternateBounds"/>
                    </mxGeometry>
                </mxCell>
                <mxCell id="76" style="connectable=0;recursiveResize=0;strokeColor=inherit;fillColor=inherit;whiteSpace=wrap;html=1;" parent="12" vertex="1">
                    <mxGeometry x="835" width="104" height="63" as="geometry">
                        <mxRectangle width="104" height="63" as="alternateBounds"/>
                    </mxGeometry>
                </mxCell>
                <mxCell id="71" style="connectable=0;recursiveResize=0;strokeColor=inherit;fillColor=inherit;whiteSpace=wrap;html=1;" parent="12" vertex="1">
                    <mxGeometry x="939" width="105" height="63" as="geometry">
                        <mxRectangle width="105" height="63" as="alternateBounds"/>
                    </mxGeometry>
                </mxCell>
                <mxCell id="66" style="connectable=0;recursiveResize=0;strokeColor=inherit;fillColor=inherit;whiteSpace=wrap;html=1;" parent="12" vertex="1">
                    <mxGeometry x="1044" width="104" height="63" as="geometry">
                        <mxRectangle width="104" height="63" as="alternateBounds"/>
                    </mxGeometry>
                </mxCell>
                <mxCell id="61" style="connectable=0;recursiveResize=0;strokeColor=inherit;fillColor=inherit;whiteSpace=wrap;html=1;" parent="12" vertex="1">
                    <mxGeometry x="1148" width="104" height="63" as="geometry">
                        <mxRectangle width="104" height="63" as="alternateBounds"/>
                    </mxGeometry>
                </mxCell>
                <mxCell id="31" style="connectable=0;recursiveResize=0;strokeColor=inherit;fillColor=inherit;whiteSpace=wrap;html=1;" parent="12" vertex="1">
                    <mxGeometry x="1252" width="104" height="63" as="geometry">
                        <mxRectangle width="104" height="63" as="alternateBounds"/>
                    </mxGeometry>
                </mxCell>
                <mxCell id="26" style="connectable=0;recursiveResize=0;strokeColor=inherit;fillColor=inherit;whiteSpace=wrap;html=1;" parent="12" vertex="1">
                    <mxGeometry x="1356" width="104" height="63" as="geometry">
                        <mxRectangle width="104" height="63" as="alternateBounds"/>
                    </mxGeometry>
                </mxCell>
                <mxCell id="16" value="" style="shape=tableRow;horizontal=0;startSize=0;swimlaneHead=0;swimlaneBody=0;top=0;left=0;bottom=0;right=0;dropTarget=0;collapsible=0;recursiveResize=0;expand=0;fontStyle=0;strokeColor=inherit;fillColor=#ffffff;" parent="3" vertex="1">
                    <mxGeometry y="198" width="1460" height="69" as="geometry"/>
                </mxCell>
                <mxCell id="17" value="Value 7" style="connectable=0;recursiveResize=0;strokeColor=inherit;fillColor=inherit;fontStyle=0;align=center;whiteSpace=wrap;html=1;" parent="16" vertex="1">
                    <mxGeometry width="104" height="69" as="geometry">
                        <mxRectangle width="104" height="69" as="alternateBounds"/>
                    </mxGeometry>
                </mxCell>
                <mxCell id="18" value="Value 8" style="connectable=0;recursiveResize=0;strokeColor=inherit;fillColor=inherit;fontStyle=0;align=center;whiteSpace=wrap;html=1;" parent="16" vertex="1">
                    <mxGeometry x="104" width="105" height="69" as="geometry">
                        <mxRectangle width="105" height="69" as="alternateBounds"/>
                    </mxGeometry>
                </mxCell>
                <mxCell id="19" value="Value 9" style="connectable=0;recursiveResize=0;strokeColor=inherit;fillColor=inherit;fontStyle=0;align=center;whiteSpace=wrap;html=1;" parent="16" vertex="1">
                    <mxGeometry x="209" width="104" height="69" as="geometry">
                        <mxRectangle width="104" height="69" as="alternateBounds"/>
                    </mxGeometry>
                </mxCell>
                <mxCell id="42" style="connectable=0;recursiveResize=0;strokeColor=inherit;fillColor=inherit;fontStyle=0;align=center;whiteSpace=wrap;html=1;" parent="16" vertex="1">
                    <mxGeometry x="313" width="104" height="69" as="geometry">
                        <mxRectangle width="104" height="69" as="alternateBounds"/>
                    </mxGeometry>
                </mxCell>
                <mxCell id="47" style="connectable=0;recursiveResize=0;strokeColor=inherit;fillColor=inherit;fontStyle=0;align=center;whiteSpace=wrap;html=1;" parent="16" vertex="1">
                    <mxGeometry x="417" width="105" height="69" as="geometry">
                        <mxRectangle width="105" height="69" as="alternateBounds"/>
                    </mxGeometry>
                </mxCell>
                <mxCell id="52" style="connectable=0;recursiveResize=0;strokeColor=inherit;fillColor=inherit;fontStyle=0;align=center;whiteSpace=wrap;html=1;" parent="16" vertex="1">
                    <mxGeometry x="522" width="104" height="69" as="geometry">
                        <mxRectangle width="104" height="69" as="alternateBounds"/>
                    </mxGeometry>
                </mxCell>
                <mxCell id="57" style="connectable=0;recursiveResize=0;strokeColor=inherit;fillColor=inherit;fontStyle=0;align=center;whiteSpace=wrap;html=1;" parent="16" vertex="1">
                    <mxGeometry x="626" width="105" height="69" as="geometry">
                        <mxRectangle width="105" height="69" as="alternateBounds"/>
                    </mxGeometry>
                </mxCell>
                <mxCell id="37" style="connectable=0;recursiveResize=0;strokeColor=inherit;fillColor=inherit;fontStyle=0;align=center;whiteSpace=wrap;html=1;" parent="16" vertex="1">
                    <mxGeometry x="731" width="104" height="69" as="geometry">
                        <mxRectangle width="104" height="69" as="alternateBounds"/>
                    </mxGeometry>
                </mxCell>
                <mxCell id="77" style="connectable=0;recursiveResize=0;strokeColor=inherit;fillColor=inherit;fontStyle=0;align=center;whiteSpace=wrap;html=1;" parent="16" vertex="1">
                    <mxGeometry x="835" width="104" height="69" as="geometry">
                        <mxRectangle width="104" height="69" as="alternateBounds"/>
                    </mxGeometry>
                </mxCell>
                <mxCell id="72" style="connectable=0;recursiveResize=0;strokeColor=inherit;fillColor=inherit;fontStyle=0;align=center;whiteSpace=wrap;html=1;" parent="16" vertex="1">
                    <mxGeometry x="939" width="105" height="69" as="geometry">
                        <mxRectangle width="105" height="69" as="alternateBounds"/>
                    </mxGeometry>
                </mxCell>
                <mxCell id="67" style="connectable=0;recursiveResize=0;strokeColor=inherit;fillColor=inherit;fontStyle=0;align=center;whiteSpace=wrap;html=1;" parent="16" vertex="1">
                    <mxGeometry x="1044" width="104" height="69" as="geometry">
                        <mxRectangle width="104" height="69" as="alternateBounds"/>
                    </mxGeometry>
                </mxCell>
                <mxCell id="62" style="connectable=0;recursiveResize=0;strokeColor=inherit;fillColor=inherit;fontStyle=0;align=center;whiteSpace=wrap;html=1;" parent="16" vertex="1">
                    <mxGeometry x="1148" width="104" height="69" as="geometry">
                        <mxRectangle width="104" height="69" as="alternateBounds"/>
                    </mxGeometry>
                </mxCell>
                <mxCell id="32" style="connectable=0;recursiveResize=0;strokeColor=inherit;fillColor=inherit;fontStyle=0;align=center;whiteSpace=wrap;html=1;" parent="16" vertex="1">
                    <mxGeometry x="1252" width="104" height="69" as="geometry">
                        <mxRectangle width="104" height="69" as="alternateBounds"/>
                    </mxGeometry>
                </mxCell>
                <mxCell id="27" style="connectable=0;recursiveResize=0;strokeColor=inherit;fillColor=inherit;fontStyle=0;align=center;whiteSpace=wrap;html=1;" parent="16" vertex="1">
                    <mxGeometry x="1356" width="104" height="69" as="geometry">
                        <mxRectangle width="104" height="69" as="alternateBounds"/>
                    </mxGeometry>
                </mxCell>
                <mxCell id="20" value="" style="shape=tableRow;horizontal=0;startSize=0;swimlaneHead=0;swimlaneBody=0;top=0;left=0;bottom=0;right=0;dropTarget=0;collapsible=0;recursiveResize=0;expand=0;fontStyle=1;strokeColor=inherit;fillColor=#EAF2D3;" parent="3" vertex="1">
                    <mxGeometry y="267" width="1460" height="63" as="geometry"/>
                </mxCell>
                <mxCell id="21" value="Value 10" style="connectable=0;recursiveResize=0;strokeColor=inherit;fillColor=inherit;whiteSpace=wrap;html=1;" parent="20" vertex="1">
                    <mxGeometry width="104" height="63" as="geometry">
                        <mxRectangle width="104" height="63" as="alternateBounds"/>
                    </mxGeometry>
                </mxCell>
                <mxCell id="22" value="Value 11" style="connectable=0;recursiveResize=0;strokeColor=inherit;fillColor=inherit;whiteSpace=wrap;html=1;" parent="20" vertex="1">
                    <mxGeometry x="104" width="105" height="63" as="geometry">
                        <mxRectangle width="105" height="63" as="alternateBounds"/>
                    </mxGeometry>
                </mxCell>
                <mxCell id="23" value="Value 12" style="connectable=0;recursiveResize=0;strokeColor=inherit;fillColor=inherit;whiteSpace=wrap;html=1;" parent="20" vertex="1">
                    <mxGeometry x="209" width="104" height="63" as="geometry">
                        <mxRectangle width="104" height="63" as="alternateBounds"/>
                    </mxGeometry>
                </mxCell>
                <mxCell id="43" style="connectable=0;recursiveResize=0;strokeColor=inherit;fillColor=inherit;whiteSpace=wrap;html=1;" parent="20" vertex="1">
                    <mxGeometry x="313" width="104" height="63" as="geometry">
                        <mxRectangle width="104" height="63" as="alternateBounds"/>
                    </mxGeometry>
                </mxCell>
                <mxCell id="48" style="connectable=0;recursiveResize=0;strokeColor=inherit;fillColor=inherit;whiteSpace=wrap;html=1;" parent="20" vertex="1">
                    <mxGeometry x="417" width="105" height="63" as="geometry">
                        <mxRectangle width="105" height="63" as="alternateBounds"/>
                    </mxGeometry>
                </mxCell>
                <mxCell id="53" style="connectable=0;recursiveResize=0;strokeColor=inherit;fillColor=inherit;whiteSpace=wrap;html=1;" parent="20" vertex="1">
                    <mxGeometry x="522" width="104" height="63" as="geometry">
                        <mxRectangle width="104" height="63" as="alternateBounds"/>
                    </mxGeometry>
                </mxCell>
                <mxCell id="58" style="connectable=0;recursiveResize=0;strokeColor=inherit;fillColor=inherit;whiteSpace=wrap;html=1;" parent="20" vertex="1">
                    <mxGeometry x="626" width="105" height="63" as="geometry">
                        <mxRectangle width="105" height="63" as="alternateBounds"/>
                    </mxGeometry>
                </mxCell>
                <mxCell id="38" style="connectable=0;recursiveResize=0;strokeColor=inherit;fillColor=inherit;whiteSpace=wrap;html=1;" parent="20" vertex="1">
                    <mxGeometry x="731" width="104" height="63" as="geometry">
                        <mxRectangle width="104" height="63" as="alternateBounds"/>
                    </mxGeometry>
                </mxCell>
                <mxCell id="78" style="connectable=0;recursiveResize=0;strokeColor=inherit;fillColor=inherit;whiteSpace=wrap;html=1;" parent="20" vertex="1">
                    <mxGeometry x="835" width="104" height="63" as="geometry">
                        <mxRectangle width="104" height="63" as="alternateBounds"/>
                    </mxGeometry>
                </mxCell>
                <mxCell id="73" style="connectable=0;recursiveResize=0;strokeColor=inherit;fillColor=inherit;whiteSpace=wrap;html=1;" parent="20" vertex="1">
                    <mxGeometry x="939" width="105" height="63" as="geometry">
                        <mxRectangle width="105" height="63" as="alternateBounds"/>
                    </mxGeometry>
                </mxCell>
                <mxCell id="68" style="connectable=0;recursiveResize=0;strokeColor=inherit;fillColor=inherit;whiteSpace=wrap;html=1;" parent="20" vertex="1">
                    <mxGeometry x="1044" width="104" height="63" as="geometry">
                        <mxRectangle width="104" height="63" as="alternateBounds"/>
                    </mxGeometry>
                </mxCell>
                <mxCell id="63" style="connectable=0;recursiveResize=0;strokeColor=inherit;fillColor=inherit;whiteSpace=wrap;html=1;" parent="20" vertex="1">
                    <mxGeometry x="1148" width="104" height="63" as="geometry">
                        <mxRectangle width="104" height="63" as="alternateBounds"/>
                    </mxGeometry>
                </mxCell>
                <mxCell id="33" style="connectable=0;recursiveResize=0;strokeColor=inherit;fillColor=inherit;whiteSpace=wrap;html=1;" parent="20" vertex="1">
                    <mxGeometry x="1252" width="104" height="63" as="geometry">
                        <mxRectangle width="104" height="63" as="alternateBounds"/>
                    </mxGeometry>
                </mxCell>
                <mxCell id="28" style="connectable=0;recursiveResize=0;strokeColor=inherit;fillColor=inherit;whiteSpace=wrap;html=1;" parent="20" vertex="1">
                    <mxGeometry x="1356" width="104" height="63" as="geometry">
                        <mxRectangle width="104" height="63" as="alternateBounds"/>
                    </mxGeometry>
                </mxCell>
                <mxCell id="79" value="船橋" style="strokeWidth=1;shadow=0;dashed=0;align=center;html=1;shape=mxgraph.mockup.forms.comboBox;strokeColor=#999999;fillColor=#ddeeff;align=left;fillColor2=#aaddff;mainText=;fontColor=#666666;fontSize=17;spacingLeft=3;" parent="1" vertex="1">
                    <mxGeometry x="100" y="160" width="150" height="30" as="geometry"/>
                </mxCell>
                <mxCell id="80" value="2024年8月" style="strokeWidth=1;shadow=0;dashed=0;align=center;html=1;shape=mxgraph.mockup.forms.comboBox;strokeColor=#999999;fillColor=#ddeeff;align=left;fillColor2=#aaddff;mainText=;fontColor=#666666;fontSize=17;spacingLeft=3;" parent="1" vertex="1">
                    <mxGeometry x="280" y="160" width="150" height="30" as="geometry"/>
                </mxCell>
                <mxCell id="81" value="&lt;font style=&quot;font-size: 18px;&quot;&gt;表示&lt;/font&gt;" style="strokeWidth=1;shadow=0;dashed=0;align=center;html=1;shape=mxgraph.mockup.buttons.multiButton;fillColor=#008cff;strokeColor=#666666;mainText=;subText=;" parent="1" vertex="1">
                    <mxGeometry x="460" y="150" width="90" height="50" as="geometry"/>
                </mxCell>
                <mxCell id="82" value="" style="strokeWidth=1;shadow=0;dashed=0;align=center;html=1;shape=mxgraph.mockup.anchor;fontSize=16;fontColor=#ffffff;fontStyle=1;whiteSpace=wrap;" parent="81" vertex="1">
                    <mxGeometry y="8" width="90" height="20" as="geometry"/>
                </mxCell>
                <mxCell id="84" value="" style="verticalLabelPosition=bottom;shadow=0;dashed=0;align=center;html=1;verticalAlign=top;strokeWidth=1;shape=mxgraph.mockup.graphics.lineChart;strokeColor=none;strokeColor2=#666666;strokeColor3=#008cff;strokeColor4=#dddddd;" parent="1" vertex="1">
                    <mxGeometry x="90" y="620" width="1450" height="320" as="geometry"/>
                </mxCell>
            </root>
        </mxGraphModel>
    </diagram>
</mxfile>